:SAMPLES-PER-SECOND 30
:FULLY-SPECIFIED
:DEGREES
190
root  -1.5125 32.7087 9.86549 -28.1498 -32.0544 14.2281
RightUpLeg  -22.699 8.73526 -4.13393
RightLeg  86.8517 -0.737281 -40.7713
RightFoot  4.78647 -4.36723 30.3967
RightToes  5.82063e-011 0 -3.6325e-017
Spine  21.9181 -7.7474 5.64555
Spine1  7.5002 -7.62616 -0.984917
HEad  -5.36391 -32.0269 -14.862
LeftShoulder1  2.84603 -6.63016 -21.7494
LeftArm  -9.62667 -1.03784 -51.7885
LeftForeArm  -42.5414 -49.926 -15.7705
LeftHand  0.588319 7.93676 26.5222
RightShoulder  1.24168 2.03668 15.7177
RightArm  -25.5616 -9.64203 53.2586
RightForeArm  -30.3052 53.2002 17.5076
RightHand  -1.73886 -0.24677 -38.094
LeftUpLeg  -20.7183 6.63314 -11.6803
LeftLeg  77.9171 -2.44104 -11.9005
LeftFoot  -6.50845 0.0836183 -1.04624
LeftToes  3.99265e-010 -1.33173e-010 6.75004e-011
191
root  -1.67021 32.5475 10.1858 -28.5012 -28.4508 14.3751
RightUpLeg  -21.5745 9.76591 -4.48313
RightLeg  87.7806 0.0386242 -44.091
RightFoot  7.42514 -5.37261 32.0673
RightToes  5.82063e-011 0 -3.6325e-017
Spine  19.8081 -8.1724 5.43692
Spine1  7.69622 -7.99998 -1.94819
HEad  -2.83196 -34.2935 -15.3604
LeftShoulder1  2.47779 -5.87462 -19.979
LeftArm  -14.3593 -4.60677 -50.1249
LeftForeArm  -31.462 -58.4846 -21.0503
LeftHand  0.0581368 5.69478 24.1006
RightShoulder  1.18894 1.94336 15.0749
RightArm  -28.5933 -10.8579 47.8746
RightForeArm  -13.2115 68.9057 33.987
RightHand  -1.5072 -0.665466 -36.102
LeftUpLeg  -20.1581 7.98956 -12.2518
LeftLeg  78.8414 -2.68852 -14.5497
LeftFoot  -4.78018 -0.00481501 0.624861
LeftToes  3.99265e-010 -1.33173e-010 6.75004e-011
192
root  -1.76245 32.3672 10.4284 -28.0048 -25.6849 14.2808
RightUpLeg  -20.6003 10.0849 -4.61118
RightLeg  88.2774 0.533867 -45.1786
RightFoot  5.86196 -5.2776 34.2217
RightToes  5.82063e-011 0 -3.6325e-017
Spine  18.4486 -8.44672 5.41498
Spine1  6.92313 -8.17979 -2.63898
HEad  -1.04775 -35.9973 -15.4533
LeftShoulder1  2.26843 -5.65505 -18.1946
LeftArm  -19.2637 -7.04377 -48.137
LeftForeArm  -25.2474 -64.3865 -26.9196
LeftHand  -0.160823 4.58518 22.1942
RightShoulder  1.11086 1.65469 14.7545
RightArm  -32.5926 -12.4875 41.4834
RightForeArm  17.9745 77.1454 67.3498
RightHand  -1.29476 -1.23972 -35.3911
LeftUpLeg  -19.9075 8.54295 -12.6123
LeftLeg  79.3892 -2.78735 -16.0584
LeftFoot  -5.78068 -0.0667963 2.15928
LeftToes  3.99265e-010 -1.33173e-010 6.75004e-011
193
root  -1.80586 32.1756 10.5374 -27.1196 -24.2778 14.4451
RightUpLeg  -20.2645 10.157 -4.63559
RightLeg  88.4616 0.715794 -44.6506
RightFoot  1.78708 -4.01798 33.962
RightToes  5.82063e-011 0 -3.6325e-017
Spine  18.0314 -8.46096 5.05588
Spine1  5.64438 -8.15773 -2.99405
HEad  -0.425409 -36.7654 -15.0189
LeftShoulder1  2.11354 -5.60084 -16.5059
LeftArm  -23.7789 -7.46723 -46.6439
LeftForeArm  -21.7942 -67.4817 -31.5353
LeftHand  -0.315953 3.6953 21.2953
RightShoulder  1.03711 1.40465 14.3153
RightArm  -36.7139 -13.9868 37.1944
RightForeArm  41.6632 77.9517 93.3998
RightHand  -1.39709 -1.10625 -36.808
LeftUpLeg  -19.6389 9.06985 -12.806
LeftLeg  79.2268 -2.98869 -16.9679
LeftFoot  -9.4834 0.0111524 2.59823
LeftToes  3.99265e-010 -1.33173e-010 6.75004e-011
194
root  -1.83514 31.9899 10.4628 -25.6381 -24.3921 14.874
RightUpLeg  -21.2581 10.1269 -4.54969
RightLeg  88.3392 0.586416 -44.0564
RightFoot  -2.99464 -2.32609 30.7992
RightToes  5.82063e-011 0 -3.6325e-017
Spine  18.4706 -8.16756 3.90722
Spine1  4.19741 -8.04767 -2.59155
HEad  -1.62618 -36.7236 -13.3522
LeftShoulder1  2.08706 -5.52225 -16.4058
LeftArm  -27.9787 -5.10308 -45.5788
LeftForeArm  -19.4917 -69.1559 -34.7294
LeftHand  -0.55919 2.06477 19.5478
RightShoulder  1.04348 1.42403 14.3613
RightArm  -39.3219 -15.515 36.342
RightForeArm  41.0561 77.839 94.7155
RightHand  -1.70478 -0.445104 -38.8413
LeftUpLeg  -20.0417 9.19388 -12.8611
LeftLeg  78.3781 -3.37746 -17.6235
LeftFoot  -14.9495 0.136192 1.5767
LeftToes  3.99265e-010 -1.33173e-010 6.75004e-011
195
root  -1.86079 31.8177 10.1861 -23.4986 -25.6377 14.9454
RightUpLeg  -23.1315 9.60678 -4.25874
RightLeg  87.8288 0.102217 -42.6299
RightFoot  -8.69772 -0.708963 27.9435
RightToes  5.82063e-011 0 -3.6325e-017
Spine  19.9108 -7.77143 2.12853
Spine1  2.81541 -8.05128 -1.47158
HEad  -4.89837 -36.0926 -9.81872
LeftShoulder1  2.24705 -5.58454 -18.1409
LeftArm  -31.0472 -0.231413 -44.7886
LeftForeArm  -21.3387 -69.6393 -35.8466
LeftHand  -0.579138 1.06915 15.2882
RightShoulder  1.14551 1.64305 15.5457
RightArm  -39.4003 -16.6368 38.3488
RightForeArm  19.6754 77.3604 74.8533
RightHand  -1.78237 -0.287892 -39.2798
LeftUpLeg  -21.475 8.20017 -12.5907
LeftLeg  77.3273 -3.59968 -17.0296
LeftFoot  -21.1545 0.136713 0.100044
LeftToes  3.99265e-010 -1.33173e-010 6.75004e-011
196
root  -1.8831 31.6966 9.73018 -20.7178 -27.5843 13.8439
RightUpLeg  -24.8422 8.30744 -3.3135
RightLeg  86.5138 -0.922446 -38.8227
RightFoot  -15.7126 0.922292 26.5167
RightToes  5.82063e-011 0 -3.6325e-017
Spine  22.358 -7.28649 0.43077
Spine1  1.60617 -8.03875 0.347292
HEad  -9.3632 -34.9907 -5.03847
LeftShoulder1  2.40916 -5.66349 -19.8224
LeftArm  -30.6773 4.5188 -45.1316
LeftForeArm  -31.2503 -65.8741 -29.8407
LeftHand  -0.308488 2.24671 11.1489
RightShoulder  1.27732 1.87775 17.1708
RightArm  -37.2135 -16.3983 41.946
RightForeArm  -13.4432 71.585 41.7208
RightHand  -1.62783 -0.562241 -38.0474
LeftUpLeg  -23.5907 5.94845 -11.5712
LeftLeg  76.3006 -3.1658 -13.6194
LeftFoot  -27.0277 -0.0927867 -1.81481
LeftToes  3.99265e-010 -1.33173e-010 6.75004e-011
197
root  -1.90803 31.6986 9.15872 -17.0855 -30.2171 11.1869
RightUpLeg  -26.3016 6.11404 -1.28708
RightLeg  83.9981 -2.30759 -32.8207
RightFoot  -22.5955 2.22098 23.906
RightToes  5.82063e-011 0 -3.6325e-017
Spine  25.3122 -6.20903 -0.49478
Spine1  0.372174 -7.40173 3.11688
HEad  -13.7186 -33.8939 -0.389104
LeftShoulder1  2.45019 -5.65404 -20.3294
LeftArm  -25.4246 6.32447 -46.7009
LeftForeArm  -44.3886 -54.2351 -18.6363
LeftHand  -0.093029 4.51055 11.042
RightShoulder  1.35497 2.02703 18.0015
RightArm  -33.9385 -14.7493 45.9271
RightForeArm  -35.2513 57.0158 20.1439
RightHand  -1.7067 -0.420375 -38.6226
LeftUpLeg  -26.1381 2.45238 -9.50524
LeftLeg  75.1786 -1.83336 -6.79114
LeftFoot  -31.231 -0.750759 -5.34825
LeftToes  3.99265e-010 -1.33173e-010 6.75004e-011
198
root  -1.93517 31.8442 8.57701 -12.5103 -33.5315 7.07611
RightUpLeg  -28.1576 2.49141 1.80194
RightLeg  80.7954 -3.17272 -25.4
RightFoot  -27.0309 2.42645 18.7651
RightToes  5.82063e-011 0 -3.6325e-017
Spine  28.1037 -4.22781 -0.473914
Spine1  -0.956651 -5.77365 6.56902
HEad  -17.6098 -33.2368 3.66005
LeftShoulder1  2.52362 -5.77339 -20.8021
LeftArm  -17.2797 6.08377 -48.0028
LeftForeArm  -55.934 -38.3451 -11.0304
LeftHand  0.40666 8.15831 16.6586
RightShoulder  1.36234 2.05078 18.0281
RightArm  -31.7237 -13.3873 49.1752
RightForeArm  -50.4153 39.9729 11.4104
RightHand  -1.74182 -0.78598 -42.3917
LeftUpLeg  -29.0513 -2.63923 -6.25224
LeftLeg  74.4109 0.458786 3.08548
LeftFoot  -32.5516 -1.60739 -9.6692
LeftToes  3.99265e-010 -1.33173e-010 6.75004e-011
199
root  -1.97565 32.0365 8.11675 -7.33521 -37.0265 1.79374
RightUpLeg  -30.3197 -2.93769 5.72028
RightLeg  78.1243 -2.75093 -16.7801
RightFoot  -27.9881 1.7056 12.836
RightToes  5.82063e-011 0 -3.6325e-017
Spine  30.293 -1.80951 0.098481
Spine1  -1.87714 -3.61994 10.0036
HEad  -21.2613 -32.6366 7.34009
LeftShoulder1  2.61733 -5.73507 -22.0257
LeftArm  -13.6534 7.72186 -47.8357
LeftForeArm  -64.8932 -27.3578 -8.01656
LeftHand  1.49473 12.2605 25.2109
RightShoulder  1.34492 1.9191 18.3321
RightArm  -33.8558 -14.8553 50.1321
RightForeArm  -62.7112 29.5955 8.56745
RightHand  -1.54017 -1.65126 -45.7165
LeftUpLeg  -31.9582 -9.22406 -1.89206
LeftLeg  75.1017 3.09249 14.4973
LeftFoot  -30.8411 -1.85795 -11.8368
LeftToes  3.99265e-010 -1.33173e-010 6.75004e-011
200
root  -2.06153 32.1781 7.86717 -2.09176 -40.2377 -4.16568
RightUpLeg  -31.8752 -9.0311 10.0141
RightLeg  76.481 -1.35136 -7.87847
RightFoot  -26.348 0.850949 7.78078
RightToes  5.82063e-011 0 -3.6325e-017
Spine  31.6596 0.415424 0.960488
Spine1  -2.04628 -1.5442 12.9888
HEad  -24.1368 -31.7387 10.0885
LeftShoulder1  2.33981 -4.60674 -22.5369
LeftArm  -20.6964 13.6762 -46.0323
LeftForeArm  -63.022 -24.6983 -7.43472
LeftHand  2.09856 12.8945 31.5435
RightShoulder  1.32795 1.6601 19.3288
RightArm  -40.5103 -20.4118 47.1993
RightForeArm  -64.8191 27.9753 8.23253
RightHand  -1.73253 -1.37049 -47.6242
LeftUpLeg  -34.2325 -15.8016 2.84955
LeftLeg  77.1645 4.61445 23.9802
LeftFoot  -27.6068 -1.41853 -11.0316
LeftToes  3.99265e-010 -1.33173e-010 6.75004e-011
